<?xml version="1.0" encoding="UTF-8"?>
<svg id="Object" xmlns="http://www.w3.org/2000/svg" viewBox="0 0 638.81 240.62">
  <defs>
    <style>
      .cls-1 {
        fill: #425b20;
      }

      .cls-2 {
        fill: #2d2c2c;
      }

      .cls-3 {
        fill: #cdeba5;
      }

      .cls-4 {
        fill: #1b2310;
      }
    </style>
  </defs>
  <g>
    <g>
      <path class="cls-1" d="m558.85,185.48c-1.67.5-3.37.93-5.1,1.26-6.46.55-13.1.89-19.56,1.2,1.66-1.2,3.17-2.59,4.41-4.1l-1.13-.92c-1.65,2.02-3.78,3.8-6.16,5.17-6.46.31-12.95.65-19.39,1.22-.01-.02-.03-.03-.05-.05l-.07.06c-6.57.58-13.07,1.41-19.39,2.71,4.49-3.44,9.28-6.43,14.01-8.7l-.63-1.32c-3.08,1.48-6.19,3.27-9.22,5.27.21-2.39.51-4.79.94-7.15l-1.44-.26c-.51,2.79-.87,5.63-1.07,8.47-1.99,1.38-3.94,2.85-5.83,4.4h0c-10.54,2.48-20.51,6.39-29.39,12.83h2.5c14.25-9.77,31.04-13.16,49.01-14.76.87,1.01,1.77,2,2.7,2.95-.82,4.72.56,9.71,3.98,14.45l1.18-.86c-2.94-4.06-4.24-8.28-3.85-12.3,4.13,4.02,8.79,7.49,13.82,10.31.22-.44.51-.84.8-1.24-6.3-3.53-12-8.07-16.8-13.47,6.52-.53,13.18-.86,19.93-1.19,6.85-.33,13.93-.67,20.9-1.28,1.88-.36,3.73-.85,5.54-1.4-.28-.39-.49-.83-.64-1.3Z"/>
      <path class="cls-3" d="m564.94,172.08c2.61-3.54,6.32-6.49,10.66-7.23,2.42-.41,4.91-.13,7.29.47,3.26.83,6.52,2.38,8.41,5.17,2.65,3.9,1.87,9.5-1.09,13.17-2.96,3.67-7.69,5.58-12.39,6.05-5.37.53-10.74-.62-16.01-1.77-1.01-.22-2.1-.48-2.77-1.27-2.27-2.67,4.3-12.42,5.9-14.59Z"/>
      <path class="cls-3" d="m531.53,202.53c2.98-2.09,7.1-3.13,10.57-2.32,2.01.47,3.8,1.6,5.49,2.79,4.05,2.86,10.2,6.28,7.13,12.01-1.1,2.05-3.14,3.47-5.31,4.31-6.05,2.34-15.55-.12-19.78-5.04-3.9-4.54-1.96-9.03,1.9-11.75Z"/>
      <path class="cls-3" d="m507.75,169.79c.36-1.15.8-2.31,1.59-3.22.87-1.01,2.11-1.66,3.4-2,3.99-1.07,8.58.85,10.63,4.44s1.36,8.52-1.6,11.41c-2.48,2.43-12.01,6.59-15,3.38-2.5-2.68.05-11.08.98-14Z"/>
      <path class="cls-1" d="m528.36,208.96c.58.26,1.15.54,1.7.84.74.4,1.47.86,1.99,1.52,2.23,2.85-.61,7.84-3.44,9.22-3.38,1.64-6.35-.76-8.61-3.35-3.16-3.62-5.15-11.24,2.3-10.04,2.09.34,4.13.95,6.06,1.81Z"/>
      <path class="cls-1" d="m545.86,168.56c.93.27,1.79.91,2.52,2.07,3.2,5.06-2.93,10.36-6.76,12.69-.72.44-1.54.84-2.38.74-1.44-.17-2.27-1.67-2.88-2.99-.79-1.74-1.6-3.67-1.09-5.52.41-1.49,1.61-2.62,2.75-3.66,2.06-1.88,5.2-4.09,7.83-3.32Z"/>
      <path class="cls-1" d="m504.11,164.6c5.1,1.26,7.53,8.88,3.36,12.32-1.44,1.19-3.22,1.87-4.97,2.53-1.49.57-3.02,1.14-4.61,1.19-8.03.26-4.09-18.59,6.22-16.04Z"/>
    </g>
    <g>
      <rect class="cls-4" x="3.38" y="195.02" width="142.79" height="2.39"/>
      <rect class="cls-4" x="496.05" y="230.31" width="137.55" height="2.39"/>
      <g>
        <path class="cls-4" d="m183.29,179.53l-8.86,20.02h-2.09l-8.86-20.02h2.29l7.66,17.39,7.72-17.39h2.15Z"/>
        <path class="cls-4" d="m183.09,192.03c0-4.46,3.26-7.63,7.66-7.63s7.63,3.17,7.63,7.63-3.23,7.66-7.63,7.66-7.66-3.2-7.66-7.66Zm13.24,0c0-3.52-2.37-5.86-5.58-5.86s-5.6,2.34-5.6,5.86,2.4,5.86,5.6,5.86,5.58-2.34,5.58-5.86Z"/>
        <path class="cls-4" d="m223.75,178.33v21.22h-1.94v-2.97c-1.23,2.03-3.32,3.12-5.8,3.12-4.29,0-7.49-3.12-7.49-7.66s3.2-7.63,7.49-7.63c2.4,0,4.46,1.03,5.72,2.97v-9.04h2.03Zm-2,13.7c0-3.52-2.4-5.86-5.58-5.86s-5.6,2.34-5.6,5.86,2.4,5.86,5.6,5.86,5.58-2.34,5.58-5.86Z"/>
        <path class="cls-4" d="m240.76,190.23v9.32h-1.94v-2.34c-.92,1.54-2.69,2.49-5.18,2.49-3.4,0-5.49-1.77-5.49-4.38,0-2.32,1.49-4.26,5.8-4.26h4.78v-.92c0-2.57-1.46-3.97-4.26-3.97-1.94,0-3.77.69-5,1.77l-.92-1.52c1.52-1.29,3.75-2.03,6.12-2.03,3.89,0,6.09,1.94,6.09,5.83Zm-2.03,4.8v-2.46h-4.72c-2.92,0-3.86,1.14-3.86,2.69,0,1.74,1.4,2.83,3.8,2.83s3.97-1.09,4.78-3.06Z"/>
        <path class="cls-4" d="m258.63,184.51l-7.52,16.84c-1.26,2.95-2.86,3.89-5,3.89-1.4,0-2.75-.46-3.66-1.37l.94-1.51c.74.74,1.66,1.14,2.75,1.14,1.34,0,2.26-.63,3.12-2.52l.66-1.46-6.72-15.01h2.12l5.66,12.78,5.66-12.78h2Z"/>
        <path class="cls-4" d="m282.71,178.33v21.22h-1.94v-2.97c-1.23,2.03-3.32,3.12-5.8,3.12-4.29,0-7.49-3.12-7.49-7.66s3.2-7.63,7.49-7.63c2.4,0,4.46,1.03,5.72,2.97v-9.04h2.03Zm-2,13.7c0-3.52-2.4-5.86-5.58-5.86s-5.6,2.34-5.6,5.86,2.4,5.86,5.6,5.86,5.58-2.34,5.58-5.86Z"/>
        <path class="cls-4" d="m301.46,192.66h-12.58c.23,3.15,2.63,5.23,5.92,5.23,1.83,0,3.46-.66,4.6-1.97l1.14,1.32c-1.34,1.6-3.43,2.46-5.8,2.46-4.69,0-7.89-3.2-7.89-7.66s3.12-7.63,7.35-7.63,7.29,3.12,7.29,7.63c0,.17-.03.4-.03.63Zm-12.58-1.52h10.67c-.26-2.95-2.4-5-5.35-5s-5.06,2.06-5.32,5Z"/>
        <path class="cls-4" d="m321.05,198.63c-.8.71-2,1.06-3.17,1.06-2.83,0-4.4-1.6-4.4-4.38v-9.09h-2.69v-1.72h2.69v-3.29h2.03v3.29h4.58v1.72h-4.58v8.98c0,1.77.92,2.75,2.6,2.75.83,0,1.66-.26,2.23-.77l.71,1.46Z"/>
        <path class="cls-4" d="m338.58,190.83v8.72h-2.03v-8.52c0-3.17-1.66-4.8-4.52-4.8-3.23,0-5.26,2-5.26,5.43v7.89h-2.03v-21.22h2.03v8.81c1.12-1.74,3.09-2.75,5.63-2.75,3.66,0,6.18,2.12,6.18,6.43Z"/>
        <path class="cls-4" d="m355.44,190.23v9.32h-1.95v-2.34c-.92,1.54-2.69,2.49-5.18,2.49-3.4,0-5.49-1.77-5.49-4.38,0-2.32,1.49-4.26,5.81-4.26h4.78v-.92c0-2.57-1.46-3.97-4.26-3.97-1.95,0-3.78.69-5,1.77l-.92-1.52c1.52-1.29,3.75-2.03,6.12-2.03,3.89,0,6.09,1.94,6.09,5.83Zm-2.03,4.8v-2.46h-4.72c-2.92,0-3.86,1.14-3.86,2.69,0,1.74,1.4,2.83,3.8,2.83s3.97-1.09,4.78-3.06Z"/>
        <path class="cls-4" d="m373.31,184.51l-7.52,16.84c-1.26,2.95-2.86,3.89-5,3.89-1.4,0-2.75-.46-3.66-1.37l.94-1.51c.74.74,1.66,1.14,2.75,1.14,1.34,0,2.26-.63,3.12-2.52l.66-1.46-6.72-15.01h2.12l5.66,12.78,5.66-12.78h2Z"/>
        <path class="cls-4" d="m387.98,181.36h-7.03v-1.83h16.18v1.83h-7.03v18.19h-2.12v-18.19Z"/>
        <path class="cls-4" d="m407.25,184.39v1.97c-.17,0-.34-.03-.49-.03-3.15,0-5.06,2-5.06,5.55v7.66h-2.03v-15.04h1.94v2.95c.94-2,2.86-3.06,5.63-3.06Z"/>
        <path class="cls-4" d="m423.87,192.66h-12.58c.23,3.15,2.63,5.23,5.92,5.23,1.83,0,3.46-.66,4.6-1.97l1.14,1.32c-1.34,1.6-3.43,2.46-5.8,2.46-4.69,0-7.89-3.2-7.89-7.66s3.12-7.63,7.35-7.63,7.29,3.12,7.29,7.63c0,.17-.03.4-.03.63Zm-12.58-1.52h10.67c-.26-2.95-2.4-5-5.35-5s-5.06,2.06-5.32,5Z"/>
        <path class="cls-4" d="m441.13,192.66h-12.58c.23,3.15,2.63,5.23,5.92,5.23,1.83,0,3.46-.66,4.6-1.97l1.14,1.32c-1.34,1.6-3.43,2.46-5.8,2.46-4.69,0-7.89-3.2-7.89-7.66s3.12-7.63,7.35-7.63,7.29,3.12,7.29,7.63c0,.17-.03.4-.03.63Zm-12.58-1.52h10.67c-.26-2.95-2.4-5-5.35-5s-5.06,2.06-5.32,5Z"/>
      </g>
      <g>
        <path class="cls-4" d="m226.69,212.69l-8.86,20.02h-2.09l-8.86-20.02h2.29l7.66,17.39,7.72-17.39h2.15Z"/>
        <path class="cls-4" d="m226.49,225.18c0-4.46,3.26-7.63,7.66-7.63s7.63,3.17,7.63,7.63-3.23,7.66-7.63,7.66-7.66-3.2-7.66-7.66Zm13.24,0c0-3.52-2.37-5.86-5.58-5.86s-5.6,2.34-5.6,5.86,2.4,5.86,5.6,5.86,5.58-2.34,5.58-5.86Z"/>
        <path class="cls-4" d="m267.15,211.49v21.22h-1.94v-2.97c-1.23,2.03-3.32,3.12-5.8,3.12-4.29,0-7.49-3.12-7.49-7.66s3.2-7.63,7.49-7.63c2.4,0,4.46,1.03,5.72,2.97v-9.04h2.03Zm-2,13.7c0-3.52-2.4-5.86-5.58-5.86s-5.6,2.34-5.6,5.86,2.4,5.86,5.6,5.86,5.58-2.34,5.58-5.86Z"/>
        <path class="cls-4" d="m272.36,212.92c0-.77.66-1.43,1.49-1.43s1.49.63,1.49,1.4c0,.83-.63,1.49-1.49,1.49s-1.49-.66-1.49-1.46Zm.46,4.75h2.03v15.04h-2.03v-15.04Z"/>
        <path class="cls-4" d="m301.72,211.49v21.22h-1.94v-2.97c-1.23,2.03-3.32,3.12-5.8,3.12-4.29,0-7.49-3.12-7.49-7.66s3.2-7.63,7.49-7.63c2.4,0,4.46,1.03,5.72,2.97v-9.04h2.03Zm-2,13.7c0-3.52-2.4-5.86-5.58-5.86s-5.6,2.34-5.6,5.86,2.4,5.86,5.6,5.86,5.58-2.34,5.58-5.86Z"/>
        <path class="cls-4" d="m320.48,225.81h-12.58c.23,3.15,2.63,5.23,5.92,5.23,1.83,0,3.46-.66,4.6-1.97l1.15,1.32c-1.35,1.6-3.43,2.46-5.81,2.46-4.69,0-7.89-3.2-7.89-7.66s3.12-7.63,7.35-7.63,7.29,3.12,7.29,7.63c0,.17-.03.4-.03.63Zm-12.58-1.52h10.67c-.26-2.95-2.4-5-5.35-5s-5.06,2.06-5.32,5Z"/>
        <path class="cls-4" d="m340.06,231.79c-.8.71-2,1.06-3.17,1.06-2.83,0-4.4-1.6-4.4-4.38v-9.09h-2.69v-1.72h2.69v-3.29h2.03v3.29h4.58v1.72h-4.58v8.98c0,1.77.92,2.75,2.6,2.75.83,0,1.66-.26,2.23-.77l.71,1.46Z"/>
        <path class="cls-4" d="m357.59,223.98v8.72h-2.03v-8.52c0-3.17-1.66-4.8-4.52-4.8-3.23,0-5.26,2-5.26,5.43v7.89h-2.03v-21.22h2.03v8.81c1.12-1.74,3.09-2.75,5.63-2.75,3.66,0,6.18,2.12,6.18,6.43Z"/>
        <path class="cls-4" d="m374.46,223.38v9.32h-1.94v-2.34c-.92,1.54-2.69,2.49-5.18,2.49-3.4,0-5.49-1.77-5.49-4.38,0-2.32,1.49-4.26,5.81-4.26h4.78v-.92c0-2.57-1.46-3.97-4.26-3.97-1.94,0-3.77.69-5,1.77l-.92-1.52c1.52-1.29,3.75-2.03,6.12-2.03,3.89,0,6.09,1.94,6.09,5.83Zm-2.03,4.8v-2.46h-4.72c-2.92,0-3.86,1.14-3.86,2.69,0,1.74,1.4,2.83,3.8,2.83s3.97-1.09,4.78-3.06Z"/>
        <path class="cls-4" d="m392.33,217.66l-7.52,16.84c-1.26,2.95-2.86,3.89-5,3.89-1.4,0-2.75-.46-3.66-1.37l.94-1.51c.74.74,1.66,1.14,2.75,1.14,1.34,0,2.26-.63,3.12-2.52l.66-1.46-6.72-15.01h2.12l5.66,12.78,5.66-12.78h2Z"/>
        <path class="cls-4" d="m407,214.52h-7.03v-1.83h16.18v1.83h-7.03v18.19h-2.12v-18.19Z"/>
        <path class="cls-4" d="m426.27,217.55v1.97c-.17,0-.34-.03-.49-.03-3.15,0-5.06,2-5.06,5.55v7.66h-2.03v-15.04h1.94v2.95c.94-2,2.86-3.06,5.63-3.06Z"/>
        <path class="cls-4" d="m441.25,223.38v9.32h-1.95v-2.34c-.92,1.54-2.69,2.49-5.18,2.49-3.4,0-5.49-1.77-5.49-4.38,0-2.32,1.49-4.26,5.81-4.26h4.78v-.92c0-2.57-1.46-3.97-4.26-3.97-1.95,0-3.78.69-5,1.77l-.92-1.52c1.52-1.29,3.75-2.03,6.12-2.03,3.89,0,6.09,1.94,6.09,5.83Zm-2.03,4.8v-2.46h-4.72c-2.92,0-3.86,1.14-3.86,2.69,0,1.74,1.4,2.83,3.8,2.83s3.97-1.09,4.78-3.06Z"/>
        <path class="cls-4" d="m460.55,211.49v21.22h-1.94v-2.97c-1.23,2.03-3.32,3.12-5.8,3.12-4.29,0-7.49-3.12-7.49-7.66s3.2-7.63,7.49-7.63c2.4,0,4.46,1.03,5.72,2.97v-9.04h2.03Zm-2,13.7c0-3.52-2.4-5.86-5.58-5.86s-5.6,2.34-5.6,5.86,2.4,5.86,5.6,5.86,5.58-2.34,5.58-5.86Z"/>
        <path class="cls-4" d="m479.31,225.81h-12.58c.23,3.15,2.63,5.23,5.92,5.23,1.83,0,3.46-.66,4.6-1.97l1.14,1.32c-1.34,1.6-3.43,2.46-5.8,2.46-4.69,0-7.89-3.2-7.89-7.66s3.12-7.63,7.35-7.63,7.29,3.12,7.29,7.63c0,.17-.03.4-.03.63Zm-12.58-1.52h10.67c-.26-2.95-2.4-5-5.35-5s-5.06,2.06-5.32,5Z"/>
      </g>
    </g>
    <path class="cls-2" d="m434.7,105.69c-.07-.04-.14-.1-.19-.18.05.07.11.14.17.2,0,0,.01-.01.02-.02Z"/>
  </g>
  <g>
    <path class="cls-4" d="m225.62,4.92c14.22,2.21,21.32,8.1,21.32,17.67l.51.51v.51c0,11.27-19.77,35.03-59.3,71.28-28.83,26.56-49.73,44.09-62.7,52.59-6,3.8-10.59,5.69-13.76,5.69-8.78,0-16.06-6.77-21.83-20.3l-1.53-7.31c1.98-22.94,15.49-52.59,40.52-88.95l14.1-17.67h-.59c-15.97,0-37.3,5.04-63.97,15.12-27.75,15.12-41.63,27.95-41.63,38.48v1.53c0,1.25.88,2.97,2.63,5.18l-1.53.59c-4.02,0-8.55-3.48-13.59-10.45l-2.04-7.31c0-18.41,23.59-34.01,70.77-46.81,16.48-3.79,31.21-5.69,44.18-5.69s22.57,5.38,28.12,16.14v.51c0,2.21-4.87,8.44-14.61,18.69-31.89,40.67-47.83,70.85-47.83,90.56v.51c1.42,2.78,3.14,4.16,5.18,4.16,10.36,0,36.9-21.49,79.6-64.48,25.66-29,38.48-49.3,38.48-60.91,0-1.25-1.02-4.19-3.06-8.84v-.51l2.55-.51Z"/>
    <path class="cls-4" d="m244.56,67.28c4.47,0,10.05,4.87,16.74,14.61.85,2.27.34,3.29-1.53,3.06-3.68-2.32-6.88-3.48-9.6-3.48-13.76,0-29.59,10.08-47.49,30.24-7.08,9.74-10.73,18.24-10.96,25.49v1.53c.23,3.23,2.52,5.18,6.88,5.86,11.04,0,25.37-12.29,42.99-36.87,3.34-5.61,5.01-11.01,5.01-16.23-.06-1.08-1.25-2.41-3.57-3.99v-.51c0-.91.75-1.49,2.25-1.74,1.5-.25,3.3-.35,5.4-.3,5.72.68,8.92,4.39,9.6,11.13,1.25,14.56-10.05,30.56-33.9,48-9.74,6.06-17.64,9.09-23.7,9.09h-1.53c-8.21.28-13.83-1.64-16.86-5.78-3.03-4.13-4.32-9.12-3.87-14.95v-2.04c0-15.69,10.45-32.17,31.35-49.44,12.57-9.12,23.5-13.68,32.79-13.68Z"/>
    <path class="cls-1" d="m415.58,10.7c31.6,0,57.51,4.16,77.73,12.49,4.02,2.83,6.03,5.01,6.03,6.54,0,2.95-2.52,5.64-7.56,8.07h-.93l-1.02-1.02c1.98-1.36,2.97-2.55,2.97-3.57,0-5.32-19.06-9.01-57.17-11.04h-15.04l-3.57.51v.51c4.36,2.95,6.54,5.3,6.54,7.05,0,1.19-3.51,3.85-10.53,7.99-26.11,19.09-49.87,43.36-71.28,72.81-7.02,9.85-11.7,17.87-14.02,24.04,16.93-12.97,28.49-20.64,34.66-23.02h1.44v.51c-15.41,13.54-26.42,24.72-33.05,33.56-2.55,4.7-5.41,7.05-8.58,7.05-4.02,0-7.7-2.52-11.04-7.56v-1.95c1.08-21.07,27.19-57.37,78.33-108.91l12.49-10.53v-.51h-.51c-27.81,2.38-52.39,6.4-73.74,12.06-18.01,5.95-31.72,12.12-41.12,18.52-8.72,6.29-13.08,11.64-13.08,16.06v2.04c1.42,3.68,6.26,5.52,14.53,5.52l6.54,1.02v1.53l-10.53,1.44c-11.44,0-19.79-5.01-25.06-15.04l-.51-2.46c0-25.77,37.64-43.02,112.91-51.74,11.38-1.3,26.11-1.95,44.18-1.95Z"/>
    <path class="cls-1" d="m403.09,70.25c6.51-.45,10.51,2.69,11.98,9.43,0,2.27-7.14,11.36-21.41,27.27l-4.93,6.63,1.53-1.27c18.86-17.56,32.17-28.26,39.93-32.11,3.06,0,5.97,2.75,8.75,8.24v.51c0,1.76-2.92,5.49-8.75,11.21-2.95,3.68-4.42,7.59-4.42,11.72l1.53,3.4-.51.42h-1.44c-4.47,0-7.42-3.57-8.84-10.7v-1.95c0-3.28.82-6.68,2.46-10.19-36.7,30.75-55.05,50.89-55.05,60.4h-.51c-3.62,0-5.89-2.75-6.8-8.24,0-7.76,7.31-21.35,21.92-40.78,2.38-3.51,8.38-11.86,18.01-25.06h-.42l-17.08,10.28c-1.47.79-2.38.88-2.72.25-.34-.62-.08-1.36.76-2.21,2.09-2.66,9.57-7.87,22.43-15.63l3.57-1.61Z"/>
    <path class="cls-1" d="m487.28,70.59c5.1,0,10.65,5.52,16.65,16.57l.42.51v.51c0,8.89-9.8,17.28-29.39,25.15-5.21,1.59-9.49,2.38-12.83,2.38-4.14-.4-6.2-1.19-6.2-2.38.74-.74,4.39-1.84,10.96-3.31,15.69-9.4,24.55-18.27,26.59-26.59h-.51c-9.52,1.87-22.83,10.56-39.93,26.08-10.08,11.38-15.12,20.42-15.12,27.1.79,4.76,3,7.14,6.63,7.14,8.27-.62,21.41-8.38,39.42-23.28l.42-.51h.51l.51.51v.42c-2.61,7.31-12.6,17.13-29.99,29.48-4.02,1.93-6.85,2.89-8.5,2.89-7.76,0-13.93-5.41-18.52-16.23l-1.44-5.69c0-16.2,13.76-33.92,41.29-53.18,8.78-5.04,15.12-7.56,19.03-7.56Z"/>
    <path class="cls-1" d="m555.93,70.59c5.1,0,10.65,5.52,16.65,16.57l.42.51v.51c0,8.89-9.8,17.28-29.39,25.15-5.21,1.59-9.49,2.38-12.83,2.38-4.14-.4-6.2-1.19-6.2-2.38.74-.74,4.39-1.84,10.96-3.31,15.69-9.4,24.55-18.27,26.59-26.59h-.51c-9.52,1.87-22.83,10.56-39.93,26.08-10.08,11.38-15.12,20.42-15.12,27.1.79,4.76,3,7.14,6.63,7.14,8.27-.62,21.41-8.38,39.42-23.28l.42-.51h.51l.51.51v.42c-2.61,7.31-12.6,17.13-29.99,29.48-4.02,1.93-6.85,2.89-8.5,2.89-7.76,0-13.93-5.41-18.52-16.23l-1.44-5.69c0-16.2,13.76-33.92,41.29-53.18,8.78-5.04,15.12-7.56,19.03-7.56Z"/>
  </g>
</svg>