<svg width="201" height="201" viewBox="0 0 201 201" fill="none" xmlns="http://www.w3.org/2000/svg">
<g clip-path="url(#clip0_542_4782)">
<path d="M199.74 100.37C199.74 155.251 155.251 199.74 100.37 199.74C45.4895 199.74 1 155.251 1 100.37C1 45.4895 45.4895 1 100.37 1C155.251 1 199.74 45.4895 199.74 100.37Z" fill="#AFDE6F" stroke="#305B12" stroke-width="2"/>
<mask id="mask0_542_4782" style="mask-type:luminance" maskUnits="userSpaceOnUse" x="0" y="0" width="201" height="201">
<path d="M100.37 200.74C155.803 200.74 200.74 155.803 200.74 100.37C200.74 44.9372 155.803 0 100.37 0C44.9372 0 0 44.9372 0 100.37C0 155.803 44.9372 200.74 100.37 200.74Z" fill="white"/>
</mask>
<g mask="url(#mask0_542_4782)">
<path d="M127 79.4397C125.04 81.7197 122.97 83.9197 120.78 86.0097C111.93 92.8297 102.63 99.4897 93.5705 105.96C94.8605 102.67 95.7505 99.2697 96.1405 95.9097L93.6405 95.6197C93.1305 100.08 91.7005 104.64 89.5305 108.84C80.4705 115.31 71.3805 121.84 62.5905 128.65C62.5505 128.64 62.5105 128.63 62.4705 128.62L62.4205 128.78C53.4505 135.74 44.8105 142.99 36.8605 150.75C40.1505 141.58 44.3205 132.8 49.0505 125.11L46.9105 123.79C43.8305 128.8 40.9905 134.28 38.4605 140.01C36.5405 136.34 34.7405 132.59 33.1705 128.78L30.8505 129.74C32.7105 134.25 34.8405 138.71 37.1805 143C35.5805 146.85 34.1205 150.8 32.8405 154.79H32.8605C19.9005 168.18 9.09047 183.13 2.23047 200.72L5.85047 198.39C17.3905 170.97 38.5505 150.43 63.1005 131.39C65.3005 132.05 67.5205 132.64 69.7505 133.16C72.9605 140.76 79.6005 146.71 88.9705 150.38L89.8905 148.04C81.8605 144.9 76.0405 139.99 72.8605 133.81C82.5905 135.78 92.5605 136.48 102.47 135.89C102.37 135.04 102.42 134.2 102.47 133.35C90.0605 134.11 77.5705 132.83 65.5905 129.48C74.5305 122.64 83.8805 115.97 93.3505 109.21C102.96 102.36 112.9 95.2697 122.43 87.9097C124.82 85.6397 127.04 83.2097 129.15 80.7197C128.38 80.4097 127.66 79.9697 127.02 79.4297L127 79.4397Z" fill="#425B20"/>
<path d="M123.351 54.3598C123.831 46.7998 126.471 39.0798 132.061 33.9698C135.181 31.1198 139.051 29.2098 143.061 27.8698C148.561 26.0298 154.721 25.2498 160.061 27.5198C167.541 30.6998 171.611 39.5298 170.741 47.5998C169.861 55.6798 164.801 62.8498 158.441 67.8998C151.171 73.6698 142.311 76.9998 133.611 80.2398C131.941 80.8598 130.121 81.4898 128.411 80.9698C122.631 79.2098 123.081 58.9798 123.371 54.3498L123.351 54.3598Z" fill="white"/>
<path d="M103.3 129.56C105.67 123.76 110.67 118.42 116.45 116.36C119.8 115.17 123.45 115.14 127.01 115.29C135.54 115.66 147.63 114.9 148.51 126.04C148.82 130.04 147.19 133.99 144.83 137.23C138.24 146.26 122.19 151.54 111.49 148.35C101.61 145.4 100.24 137.09 103.31 129.56H103.3Z" fill="white"/>
<path d="M38.3807 104.27C37.8407 102.27 37.4007 100.18 37.6807 98.1296C38.0007 95.8496 39.1907 93.7596 40.7407 92.0596C45.5207 86.7996 53.9607 85.2996 60.2707 88.5896C66.5707 91.8796 70.1607 99.6696 68.5807 106.6C67.2407 112.43 57.3207 127.33 50.0007 125.46C43.8807 123.9 39.7707 109.37 38.3807 104.27Z" fill="white"/>
<path d="M104.7 141.83C105.78 141.67 106.86 141.54 107.95 141.46C109.39 141.35 110.88 141.33 112.25 141.8C118.14 143.85 118.67 153.73 115.84 158.36C112.47 163.88 105.93 163.17 100.24 161.52C92.3001 159.22 82.3201 150.03 94.2301 144.84C97.5701 143.39 101.1 142.37 104.7 141.82V141.83Z" fill="#425B20"/>
<path d="M92.4405 67.0196C94.0405 66.5496 95.8805 66.6696 98.0205 67.6696C107.361 72.0296 103.421 85.4096 100.041 92.3296C99.4005 93.6396 98.5905 94.9796 97.2805 95.6096C95.0305 96.6996 92.4305 95.2996 90.3305 93.9496C87.5605 92.1596 84.5905 90.1296 83.6105 86.9796C82.8205 84.4296 83.5005 81.6896 84.1905 79.1096C85.4305 74.4696 87.9205 68.3496 92.4405 67.0196Z" fill="#425B20"/>
<path d="M28.271 100.159C36.831 97.2395 47.441 106.019 44.611 114.869C43.631 117.929 41.681 120.579 39.771 123.169C38.141 125.379 36.461 127.629 34.201 129.179C22.821 137.019 10.961 106.059 28.271 100.159Z" fill="#425B20"/>
</g>
</g>
<defs>
<clipPath id="clip0_542_4782">
<rect width="200.73" height="200.73" fill="white"/>
</clipPath>
</defs>
</svg>
